<?xml version="1.0" encoding="utf-8"?>
<!-- Generator: Adobe Illustrator 26.0.1, SVG Export Plug-In . SVG Version: 6.00 Build 0)  -->
<svg version="1.1" xmlns="http://www.w3.org/2000/svg" xmlns:xlink="http://www.w3.org/1999/xlink" x="0px" y="0px"
	 viewBox="0 0 1010 1080" style="enable-background:new 0 0 1010 1080;" xml:space="preserve">
<style type="text/css">
	.st0{fill:#6AC0DB;}
	.st1{fill:#4C8F9B;}
	
		.st2{clip-path:url(#SVGID_00000112614111215467873040000002915248920534740869_);fill:url(#SVGID_00000098940399787688016370000014214091615184093880_);}
	.st3{fill:#CC3A48;}
	.st4{fill:#F1595A;}
	.st5{fill:#2D2D2D;}
	.st6{fill:#383838;}
	.st7{fill:none;stroke:#2B2B2A;stroke-width:8.557;stroke-miterlimit:10;}
	.st8{fill:#2B2B2A;}
	.st9{fill:#4C4C4D;}
	.st10{fill:#B5B5B6;stroke:#333333;stroke-width:4.8897;stroke-miterlimit:10;}
	.st11{fill:#B5B5B6;}
	.st12{fill:#333333;}
	.st13{fill:#353535;}
	.st14{fill:none;stroke:#333333;stroke-width:4.8897;stroke-miterlimit:10;}
	.st15{fill:#EE2A38;}
	.st16{fill:#D3404E;}
	.st17{fill-rule:evenodd;clip-rule:evenodd;fill:#3F403F;}
	.st18{fill:#FFFFFF;}
	.st19{fill:url(#SVGID_00000016068205625679278730000002949252395333876395_);}
	.st20{fill:url(#SVGID_00000087384350053983014340000004228197335965915061_);}
	.st21{fill:url(#SVGID_00000018214238401929194450000010290439560619041426_);}
	.st22{fill:url(#SVGID_00000100384743855272010400000005126698554742456462_);}
	.st23{fill:url(#SVGID_00000092453483136204701100000016728349444372228535_);}
	.st24{fill:url(#SVGID_00000083082346679445409640000016943941517112160902_);}
	.st25{fill:url(#SVGID_00000106141219137809161990000015066098546140187570_);}
	.st26{fill:url(#SVGID_00000032629855759220297980000006450213032770687923_);}
	.st27{fill:url(#SVGID_00000080202771286168337420000005572886467987214258_);}
</style>
<g id="Layer_1">
	<g>
		<circle class="st0" cx="546.25" cy="534.54" r="359.54"/>
		<polygon class="st1" points="648.64,415.32 721.06,487.74 455.95,487.74 455.95,415.61 		"/>
		<g>
			<g>
				<defs>
					<circle id="SVGID_1_" cx="546.25" cy="534.54" r="359.54"/>
				</defs>
				<clipPath id="SVGID_00000012442604890890577900000018001116625197325970_">
					<use xlink:href="#SVGID_1_"  style="overflow:visible;"/>
				</clipPath>
				
					<linearGradient id="SVGID_00000053513897718143119480000011471056615162643387_" gradientUnits="userSpaceOnUse" x1="830.079" y1="1016.4465" x2="476.554" y2="404.1231">
					<stop  offset="0" style="stop-color:#FFFFFF;stop-opacity:0"/>
					<stop  offset="1" style="stop-color:#005A5A"/>
				</linearGradient>
				
					<polygon style="clip-path:url(#SVGID_00000012442604890890577900000018001116625197325970_);fill:url(#SVGID_00000053513897718143119480000011471056615162643387_);" points="
					317.38,754.58 472.81,910 1014.44,910 1014.44,709.62 769.51,464.69 362.89,469.75 317.38,513.19 				"/>
			</g>
			<g>
				<g>
					<g>
						<path class="st3" d="M764.14,769.95l-427.99,0.64c-8.07,0.01-14.68-6.58-14.69-14.65l-0.41-274.11
							c-0.01-8.07,6.58-14.68,14.65-14.69l427.99-0.64c8.07-0.01,14.68,6.58,14.69,14.65l0.41,274.11
							C778.8,763.32,772.21,769.94,764.14,769.95z"/>
						<path class="st4" d="M760.47,763.84l-427.99,0.64c-8.07,0.01-14.68-6.58-14.69-14.65l-0.41-274.11
							c-0.01-8.07,6.58-14.68,14.65-14.69l427.99-0.64c8.07-0.01,14.68,6.58,14.69,14.65l0.41,274.11
							C775.13,757.21,768.54,763.82,760.47,763.84z"/>
						
							<ellipse transform="matrix(0.7071 -0.7071 0.7071 0.7071 -299.3199 499.7825)" class="st5" cx="453.63" cy="611.2" rx="107.57" ry="107.57"/>
						
							<ellipse transform="matrix(0.7071 -0.7071 0.7071 0.7071 -299.3198 499.7825)" class="st6" cx="453.63" cy="611.2" rx="88.02" ry="88.02"/>
						
							<ellipse transform="matrix(0.8209 -0.571 0.571 0.8209 -267.7878 368.5005)" class="st7" cx="453.63" cy="611.2" rx="56.23" ry="56.23"/>
						
							<ellipse transform="matrix(0.964 -0.2659 0.2659 0.964 -146.5352 142.696)" class="st8" cx="453.63" cy="612.42" rx="23.63" ry="23.63"/>
						<path class="st9" d="M470.13,607.66c0.01,6.33-4.84,11.47-10.83,11.48c-5.99,0.01-10.86-5.11-10.87-11.44
							c-0.01-6.33,4.84-11.47,10.83-11.48C465.25,596.21,470.12,601.33,470.13,607.66z"/>
						<g>
							<path class="st9" d="M456.31,513.19c0,1.56-1.26,2.83-2.82,2.83c-1.56,0-2.83-1.26-2.83-2.82c0-1.56,1.26-2.83,2.82-2.83
								C455.04,510.36,456.31,511.63,456.31,513.19z"/>
							<path class="st9" d="M456.6,709.21c0,1.56-1.26,2.83-2.82,2.83c-1.56,0-2.83-1.26-2.83-2.82c0-1.56,1.26-2.83,2.82-2.83
								C455.33,706.38,456.6,707.65,456.6,709.21z"/>
						</g>
						<g>
							<path class="st9" d="M551.65,613.88c-1.56,0-2.83-1.26-2.83-2.82c0-1.56,1.26-2.83,2.82-2.83c1.56,0,2.83,1.26,2.83,2.82
								C554.47,612.61,553.21,613.88,551.65,613.88z"/>
							<path class="st9" d="M355.62,614.18c-1.56,0-2.83-1.26-2.83-2.82c0-1.56,1.26-2.83,2.82-2.83c1.56,0,2.83,1.26,2.83,2.82
								C358.45,612.91,357.19,614.17,355.62,614.18z"/>
						</g>
						<g>
							
								<ellipse transform="matrix(0.991 -0.1342 0.1342 0.991 -82.0696 91.1156)" class="st10" cx="634.92" cy="654.4" rx="24.14" ry="24.14"/>
							
								<ellipse transform="matrix(0.7432 -0.6691 0.6691 0.7432 -252.5767 650.4865)" class="st10" cx="721.1" cy="654.28" rx="24.14" ry="24.14"/>
						</g>
						<g>
							<g>
								<path class="st11" d="M654.86,602.34L654.86,602.34c-4.2,0.01-7.65-3.43-7.65-7.63l-0.11-71.35
									c-0.01-4.2,3.43-7.65,7.63-7.65l0,0c4.2-0.01,7.65,3.43,7.65,7.63l0.11,71.35C662.5,598.9,659.06,602.34,654.86,602.34z"/>
								<path class="st11" d="M678.39,602.31L678.39,602.31c-4.2,0.01-7.65-3.43-7.65-7.63l-0.11-71.35
									c-0.01-4.2,3.43-7.65,7.63-7.65l0,0c4.2-0.01,7.65,3.43,7.65,7.63l0.11,71.35C686.03,598.86,682.59,602.3,678.39,602.31z"/>
								<path class="st11" d="M701.01,602.28L701.01,602.28c-4.2,0.01-7.65-3.43-7.65-7.63l-0.11-71.35
									c-0.01-4.2,3.43-7.65,7.63-7.65l0,0c4.2-0.01,7.65,3.43,7.65,7.63l0.11,71.35C708.64,598.83,705.21,602.27,701.01,602.28z"
									/>
							</g>
							<g>
								<path class="st12" d="M662.08,526.39c0.01,3.97-3.2,7.19-7.17,7.19c-3.97,0.01-7.19-3.2-7.19-7.17
									c-0.01-3.97,3.2-7.19,7.17-7.19C658.86,519.21,662.08,522.42,662.08,526.39z"/>
								<path class="st12" d="M685.49,543.16c0.01,3.97-3.2,7.19-7.17,7.19s-7.19-3.2-7.19-7.17c-0.01-3.97,3.2-7.19,7.17-7.19
									C682.26,535.99,685.48,539.2,685.49,543.16z"/>
								<path class="st12" d="M708.08,529.99c0.01,3.97-3.2,7.19-7.17,7.19c-3.97,0.01-7.19-3.2-7.19-7.17
									c-0.01-3.97,3.2-7.19,7.17-7.19C704.86,522.81,708.08,526.02,708.08,529.99z"/>
							</g>
						</g>
						
							<rect x="570.54" y="695.22" transform="matrix(1 -1.492916e-03 1.492916e-03 1 -1.0746 1.0052)" class="st13" width="204.54" height="50.12"/>
						<g>
							<g>
								<g>
									<path class="st13" d="M468.56,431.48c0-0.67-0.55-1.22-1.22-1.22l-22.82,0.03c-0.67,0-1.22,0.55-1.22,1.22l0.04,28.12
										c0,0.67,0.55,1.22,1.22,1.22l22.82-0.03c0.67,0,1.22-0.55,1.22-1.22L468.56,431.48z"/>
								</g>
								<g>
									<path class="st13" d="M648.66,431.21c0-0.67-0.55-1.22-1.22-1.22l-22.82,0.03c-0.67,0-1.22,0.55-1.22,1.22l0.04,28.12
										c0,0.67,0.55,1.22,1.22,1.22l22.82-0.03c0.67,0,1.22-0.55,1.22-1.22L648.66,431.21z"/>
								</g>
								<g>
									<path class="st13" d="M648.66,431.21c0,0.67-0.55,1.22-1.22,1.22l-202.92,0.3c-0.67,0-1.22-0.55-1.22-1.22l-0.02-14.67
										c0-0.67,0.55-1.22,1.22-1.22l202.92-0.3c0.67,0,1.22,0.55,1.22,1.22L648.66,431.21z"/>
								</g>
							</g>
						</g>
						<path class="st10" d="M767.97,726.86c0.01,8.1-6.55,14.68-14.65,14.69l-158.92,0.24c-8.1,0.01-14.68-6.55-14.69-14.65
							l-0.02-13.45c-0.01-8.1,6.55-14.68,14.65-14.69l158.92-0.24c8.1-0.01,14.68,6.55,14.69,14.65L767.97,726.86z"/>
						<line class="st14" x1="581.74" y1="720.42" x2="765.92" y2="720.14"/>
						<g>
							<path class="st12" d="M602.95,730.78c0,1.35-1.09,2.45-2.44,2.45l0,0c-1.35,0-2.45-1.09-2.45-2.44l-0.03-22
								c0-1.35,1.09-2.45,2.44-2.45l0,0c1.35,0,2.45,1.09,2.45,2.44L602.95,730.78z"/>
							<path class="st12" d="M615.17,730.76c0,1.35-1.09,2.45-2.44,2.45l0,0c-1.35,0-2.45-1.09-2.45-2.44l-0.03-22
								c0-1.35,1.09-2.45,2.44-2.45l0,0c1.35,0,2.45,1.09,2.45,2.44L615.17,730.76z"/>
							<path class="st12" d="M624.75,732.78L624.75,732.78c-1.46,0-2.65-1.19-2.65-2.64l-0.03-21.35c0-1.46,1.19-2.65,2.64-2.65l0,0
								c1.46,0,2.65,1.19,2.65,2.64l0.03,21.35C627.4,731.59,626.21,732.78,624.75,732.78z"/>
							<path class="st12" d="M636.97,732.76L636.97,732.76c-1.46,0-2.65-1.19-2.65-2.64l-0.03-21.35c0-1.46,1.19-2.65,2.64-2.65l0,0
								c1.46,0,2.65,1.19,2.65,2.64l0.03,21.35C639.62,731.57,638.43,732.76,636.97,732.76z"/>
							<path class="st12" d="M649.2,732.75L649.2,732.75c-1.46,0-2.65-1.19-2.65-2.64l-0.03-21.35c0-1.46,1.19-2.65,2.64-2.65l0,0
								c1.46,0,2.65,1.19,2.65,2.64l0.03,21.35C651.84,731.55,650.65,732.74,649.2,732.75z"/>
							<path class="st12" d="M661.42,732.73L661.42,732.73c-1.46,0-2.65-1.19-2.65-2.64l-0.03-21.35c0-1.46,1.19-2.65,2.64-2.65l0,0
								c1.46,0,2.65,1.19,2.65,2.64l0.03,21.35C664.07,731.53,662.88,732.73,661.42,732.73z"/>
							<path class="st12" d="M673.64,732.71L673.64,732.71c-1.46,0-2.65-1.19-2.65-2.64l-0.03-21.35c0-1.46,1.19-2.65,2.64-2.65l0,0
								c1.46,0,2.65,1.19,2.65,2.64l0.03,21.35C676.29,731.51,675.1,732.71,673.64,732.71z"/>
							<path class="st12" d="M685.87,732.69L685.87,732.69c-1.46,0-2.65-1.19-2.65-2.64l-0.03-21.35c0-1.46,1.19-2.65,2.64-2.65l0,0
								c1.46,0,2.65,1.19,2.65,2.64l0.03,21.35C688.51,731.5,687.32,732.69,685.87,732.69z"/>
							<path class="st12" d="M698.09,732.67L698.09,732.67c-1.46,0-2.65-1.19-2.65-2.64l-0.03-21.35c0-1.46,1.19-2.65,2.64-2.65l0,0
								c1.46,0,2.65,1.19,2.65,2.64l0.03,21.35C700.74,731.48,699.55,732.67,698.09,732.67z"/>
							<path class="st12" d="M710.32,732.65L710.32,732.65c-1.46,0-2.65-1.19-2.65-2.64l-0.03-21.35c0-1.46,1.19-2.65,2.64-2.65l0,0
								c1.46,0,2.65,1.19,2.65,2.64l0.03,21.35C712.96,731.46,711.77,732.65,710.32,732.65z"/>
							<path class="st12" d="M722.54,732.64L722.54,732.64c-1.46,0-2.65-1.19-2.65-2.64l-0.03-21.35c0-1.46,1.19-2.65,2.64-2.65l0,0
								c1.46,0,2.65,1.19,2.65,2.64l0.03,21.35C725.19,731.44,724,732.63,722.54,732.64z"/>
							<path class="st12" d="M734.76,732.62L734.76,732.62c-1.46,0-2.65-1.19-2.65-2.64l-0.03-21.35c0-1.46,1.19-2.65,2.64-2.65l0,0
								c1.46,0,2.65,1.19,2.65,2.64l0.03,21.35C737.41,731.42,736.22,732.62,734.76,732.62z"/>
							<path class="st12" d="M749.64,730.56c0,1.35-1.09,2.45-2.44,2.45l0,0c-1.35,0-2.45-1.09-2.45-2.44l-0.03-22
								c0-1.35,1.09-2.45,2.44-2.45l0,0c1.35,0,2.45,1.09,2.45,2.44L749.64,730.56z"/>
						</g>
						<g>
							<path class="st15" d="M629.73,713.44c0.34,2.1,0.89,2.1,1.22,0c0.33-2.1,0.87-5.53,1.21-7.63c0.33-2.1,0.06-3.81-0.61-3.81
								s-1.77,0-2.44,0c-0.67,0-0.94,1.72-0.6,3.81C628.84,707.91,629.39,711.34,629.73,713.44z"/>
						</g>
					</g>
					
						<rect x="317.38" y="475.38" transform="matrix(1 -1.492827e-03 1.492827e-03 1 -0.7145 0.8148)" class="st16" width="456.11" height="7.33"/>
				</g>
				<g>
					<path class="st12" d="M634.77,648.83L634.77,648.83c-1.82,0-3.31-1.48-3.31-3.3l-0.02-11.5c0-1.82,1.48-3.31,3.3-3.31l0,0
						c1.82,0,3.31,1.48,3.31,3.3l0.02,11.5C638.07,647.34,636.58,648.82,634.77,648.83z"/>
					<path class="st12" d="M722.46,678.42L722.46,678.42c-1.82,0-3.31-1.48-3.31-3.3l-0.02-11.5c0-1.82,1.48-3.31,3.3-3.31l0,0
						c1.82,0,3.31,1.48,3.31,3.3l0.02,11.5C725.76,676.92,724.28,678.41,722.46,678.42z"/>
				</g>
			</g>
		</g>
		<g>
			<path class="st17" d="M566.94,225.18l5.36-1.53c0,0,10.03,5.56,25.71,13.7c15.69,8.15,24.71,25.17,14.98,44.89
				c-4.46,9-0.2-10.48-1.69-15.67c-1.49-5.2-18.58-25.59-30.91-22.06c0,0,13.03,45.45,15.26,53.24c2.23,7.8-3.14,18.46-15.48,22
				c-12.34,3.54-22.73-3.32-22.56-17.42c0.12-10.22,18.54-18.67,28.29-11.63L566.94,225.18z"/>
		</g>
		<g>
			<path class="st17" d="M778.73,272.16l-77.11,69.83c3.36-19.39-22.27-40.4-37.38-33.24c-20.87,9.86-23.49,30.07-9.43,45.68
				c14.06,15.6,33.61,15.83,43.46,6.96l51.99-46.85l28.05,56.33l-43.47,39.38c3.36-19.4-22.28-40.4-37.39-33.25
				c-20.86,9.86-23.48,30.08-9.43,45.68c14.05,15.59,33.62,15.83,43.47,6.96l86.97-78.35L778.73,272.16z M763.95,302.21l7.41-6.67
				l28.03,56.26l-7.4,6.68L763.95,302.21z"/>
		</g>
	</g>
</g>
<g id="Layer_2">
	<g>
		<path class="st18" d="M1695,415.46v391.79c0,26.61-21.57,48.18-48.18,48.18h-475.36c-26.61,0-48.18-21.57-48.18-48.18V415.46
			l15.36-15.66h538.9L1695,415.46z"/>
		
			<linearGradient id="SVGID_00000086679669049821981790000008221185385952383122_" gradientUnits="userSpaceOnUse" x1="1409.1401" y1="291.474" x2="1409.1401" y2="414.8544">
			<stop  offset="0" style="stop-color:#F56043"/>
			<stop  offset="1" style="stop-color:#F71E36"/>
		</linearGradient>
		<path style="fill:url(#SVGID_00000086679669049821981790000008221185385952383122_);" d="M1695,331.5v83.96h-571.72V331.5
			c0-26.39,21.4-47.79,47.79-47.79h476.13C1673.6,283.71,1695,305.11,1695,331.5z"/>
		<path d="M1257.98,701.47l20.9-28.63c11.97,11.43,26.48,19.8,42.91,19.8c19.11,0,31.84-8.34,31.84-23.39
			c0-17.19-10.04-27.78-52.63-27.78v-32.11c35.18,0,46.24-10.7,46.24-26.22c0-13.78-8.77-21.57-24.15-21.57
			c-13.93,0-24.48,6.31-36.6,17.12l-22.93-27.62c18.03-15.49,37.73-25.07,61.56-25.07c40.67,0,67.55,19.3,67.55,53.73
			c0,20.17-11.57,34.62-32.64,43.49v1.23c22.63,6.46,39.03,22.42,39.03,47.74c0,36.46-33.41,57.02-72.81,57.02
			C1294.55,729.22,1272.34,717.98,1257.98,701.47z"/>
		<path d="M1435.5,688.94h42.8V575.65h-36.67v-28.12c21.01-3.99,34.86-9.32,48.58-17.81h33.42v159.23h36.67v36.58h-124.8V688.94z"/>
		<g>
			
				<radialGradient id="SVGID_00000075860585182640280510000003274879498375846052_" cx="1219.0216" cy="335.5411" r="17.6319" gradientUnits="userSpaceOnUse">
				<stop  offset="0" style="stop-color:#9E0A1C"/>
				<stop  offset="0.8426" style="stop-color:#530209"/>
				<stop  offset="1" style="stop-color:#340002"/>
			</radialGradient>
			<circle style="fill:url(#SVGID_00000075860585182640280510000003274879498375846052_);" cx="1219.02" cy="335.54" r="17.63"/>
			
				<linearGradient id="SVGID_00000158707227750505771250000005129904953056992396_" gradientUnits="userSpaceOnUse" x1="1208.3711" y1="299.7727" x2="1229.6721" y2="299.7727">
				<stop  offset="0" style="stop-color:#595959"/>
				<stop  offset="0.2929" style="stop-color:#C4C4C4"/>
				<stop  offset="0.6202" style="stop-color:#C4C4C4"/>
				<stop  offset="1" style="stop-color:#595959"/>
			</linearGradient>
			<path style="fill:url(#SVGID_00000158707227750505771250000005129904953056992396_);" d="M1227.86,259.46h-17.68
				c-1,0-1.81,0.81-1.81,1.81v77.01c0,1,0.81,1.81,1.81,1.81h17.68c1,0,1.81-0.81,1.81-1.81v-77.01
				C1229.67,260.27,1228.86,259.46,1227.86,259.46z"/>
		</g>
		<g>
			
				<radialGradient id="SVGID_00000172426352658051333080000015243365205509599115_" cx="1345.7673" cy="335.5411" r="17.6319" gradientUnits="userSpaceOnUse">
				<stop  offset="0" style="stop-color:#9E0A1C"/>
				<stop  offset="0.8426" style="stop-color:#530209"/>
				<stop  offset="1" style="stop-color:#340002"/>
			</radialGradient>
			<circle style="fill:url(#SVGID_00000172426352658051333080000015243365205509599115_);" cx="1345.77" cy="335.54" r="17.63"/>
			
				<linearGradient id="SVGID_00000149373848415004985530000016190216641095232904_" gradientUnits="userSpaceOnUse" x1="1335.1168" y1="299.7727" x2="1356.4177" y2="299.7727">
				<stop  offset="0" style="stop-color:#595959"/>
				<stop  offset="0.2929" style="stop-color:#C4C4C4"/>
				<stop  offset="0.6202" style="stop-color:#C4C4C4"/>
				<stop  offset="1" style="stop-color:#595959"/>
			</linearGradient>
			<path style="fill:url(#SVGID_00000149373848415004985530000016190216641095232904_);" d="M1354.61,259.46h-17.68
				c-1,0-1.81,0.81-1.81,1.81v77.01c0,1,0.81,1.81,1.81,1.81h17.68c1,0,1.81-0.81,1.81-1.81v-77.01
				C1356.42,260.27,1355.61,259.46,1354.61,259.46z"/>
		</g>
		<g>
			
				<radialGradient id="SVGID_00000181804403166851444040000005326653533579256247_" cx="1472.5129" cy="335.5411" r="17.6319" gradientUnits="userSpaceOnUse">
				<stop  offset="0" style="stop-color:#9E0A1C"/>
				<stop  offset="0.8426" style="stop-color:#530209"/>
				<stop  offset="1" style="stop-color:#340002"/>
			</radialGradient>
			<circle style="fill:url(#SVGID_00000181804403166851444040000005326653533579256247_);" cx="1472.51" cy="335.54" r="17.63"/>
			
				<linearGradient id="SVGID_00000142898647905850137040000001028202505069131687_" gradientUnits="userSpaceOnUse" x1="1461.8625" y1="299.7727" x2="1483.1635" y2="299.7727">
				<stop  offset="0" style="stop-color:#595959"/>
				<stop  offset="0.2929" style="stop-color:#C4C4C4"/>
				<stop  offset="0.6202" style="stop-color:#C4C4C4"/>
				<stop  offset="1" style="stop-color:#595959"/>
			</linearGradient>
			<path style="fill:url(#SVGID_00000142898647905850137040000001028202505069131687_);" d="M1481.35,259.46h-17.68
				c-1,0-1.81,0.81-1.81,1.81v77.01c0,1,0.81,1.81,1.81,1.81h17.68c1,0,1.81-0.81,1.81-1.81v-77.01
				C1483.16,260.27,1482.35,259.46,1481.35,259.46z"/>
		</g>
		<g>
			
				<radialGradient id="SVGID_00000173875822442222368230000017570261946903415939_" cx="1599.2587" cy="335.5411" r="17.6319" gradientUnits="userSpaceOnUse">
				<stop  offset="0" style="stop-color:#9E0A1C"/>
				<stop  offset="0.8426" style="stop-color:#530209"/>
				<stop  offset="1" style="stop-color:#340002"/>
			</radialGradient>
			<circle style="fill:url(#SVGID_00000173875822442222368230000017570261946903415939_);" cx="1599.26" cy="335.54" r="17.63"/>
			
				<linearGradient id="SVGID_00000090987547975289311910000007954807847011473551_" gradientUnits="userSpaceOnUse" x1="1588.6082" y1="299.7727" x2="1609.9092" y2="299.7727">
				<stop  offset="0" style="stop-color:#595959"/>
				<stop  offset="0.2929" style="stop-color:#C4C4C4"/>
				<stop  offset="0.6202" style="stop-color:#C4C4C4"/>
				<stop  offset="1" style="stop-color:#595959"/>
			</linearGradient>
			<path style="fill:url(#SVGID_00000090987547975289311910000007954807847011473551_);" d="M1608.1,259.46h-17.68
				c-1,0-1.81,0.81-1.81,1.81v77.01c0,1,0.81,1.81,1.81,1.81h17.68c1,0,1.81-0.81,1.81-1.81v-77.01
				C1609.91,260.27,1609.1,259.46,1608.1,259.46z"/>
		</g>
	</g>
</g>
</svg>
